# xmcd
#
# Track frame offsets: 
#        150
#        24990
#        47228
#        72068
#
# Disc length: 1255 seconds
#
# Revision: 0
# Processed by: cddbd v1.5.2PL0 Copyright (c) Steve Scherf et al.
# Submitted via: ExactAudioCopy v1.0b3
#
DISCID=2b04e504
DTITLE=竹島宏 - 陽が昇る
DYEAR=2016
DGENRE=Pop
TTITLE0=陽が昇る
TTITLE1=未来へ
TTITLE2=陽が昇る(オリジナルカラオケ)
TTITLE3=未来へ(オリジナルカラオケ)
EXTD=
EXTT0=
EXTT1=
EXTT2=
EXTT3=
PLAYORDER=
